<svg width="512" height="512" viewBox="0 0 512 512" fill="none" xmlns="http://www.w3.org/2000/svg">
<path d="M256.209 405.333C267.991 405.333 277.542 414.885 277.542 426.667C277.542 438.449 267.991 448 256.209 448H256C244.218 448 234.667 438.449 234.667 426.667C234.667 414.885 244.218 405.333 256 405.333H256.209Z" fill="black"/>
<path d="M256 192.009C317.425 192.009 376.405 216.095 420.271 259.092C428.682 267.34 428.809 280.846 420.563 289.259C412.315 297.67 398.809 297.797 390.396 289.551C354.506 254.375 306.253 234.676 256 234.676C205.747 234.676 157.494 254.375 121.604 289.551C113.191 297.797 99.6853 297.67 91.4376 289.259C83.1912 280.846 83.3183 267.34 91.7292 259.092C135.595 216.095 194.575 192.009 256 192.009Z" fill="black"/>
<path d="M256 298.661C289.504 298.661 321.678 311.792 345.605 335.244C354.018 343.491 354.142 356.996 345.896 365.411C337.649 373.825 324.144 373.971 315.73 365.723C299.778 350.088 278.336 341.327 256 341.327C233.665 341.327 212.222 350.088 196.271 365.723C187.857 373.971 174.352 373.825 166.105 365.411C157.858 356.996 157.983 343.491 166.396 335.244C190.323 311.792 222.497 298.661 256 298.661Z" fill="black"/>
</svg>
